<mxfile host="65bd71144e" scale="1" border="1">
    <diagram id="fi_LJApwSU1rLJk3nP5o" name="展示">
        <mxGraphModel dx="2111" dy="1223" grid="1" gridSize="1" guides="1" tooltips="1" connect="1" arrows="1" fold="1" page="0" pageScale="1" pageWidth="827" pageHeight="1169" math="0" shadow="0">
            <root>
                <mxCell id="0"/>
                <mxCell id="1" parent="0"/>
                <mxCell id="HdebAHhrYsAGTr4B4Djl-1" value="" style="rounded=0;whiteSpace=wrap;html=1;fontSize=12;fillColor=#e1d5e7;strokeColor=#9673a6;" parent="1" vertex="1">
                    <mxGeometry width="520" height="532" as="geometry"/>
                </mxCell>
                <mxCell id="HdebAHhrYsAGTr4B4Djl-2" value="" style="rounded=0;whiteSpace=wrap;html=1;strokeColor=#000000;fontSize=12;fillColor=#dae8fc;movable=1;resizable=1;rotatable=1;deletable=1;editable=1;locked=0;connectable=1;" parent="1" vertex="1">
                    <mxGeometry x="2" y="8" width="516" height="258" as="geometry"/>
                </mxCell>
                <mxCell id="Y9K5SOgR9H9bx-Cjpk4M-4" value="游戏显示&lt;div&gt;512x256&lt;/div&gt;" style="text;html=1;align=center;verticalAlign=middle;whiteSpace=wrap;rounded=0;" parent="1" vertex="1">
                    <mxGeometry x="228" y="137" width="60" height="30" as="geometry"/>
                </mxCell>
                <mxCell id="2" value="" style="endArrow=classic;html=1;exitX=0;exitY=0;exitDx=0;exitDy=0;" parent="1" source="HdebAHhrYsAGTr4B4Djl-1" edge="1">
                    <mxGeometry width="50" height="50" relative="1" as="geometry">
                        <mxPoint x="190" y="-30" as="sourcePoint"/>
                        <mxPoint x="1130" as="targetPoint"/>
                    </mxGeometry>
                </mxCell>
                <mxCell id="3" value="X" style="text;html=1;align=center;verticalAlign=middle;whiteSpace=wrap;rounded=0;" parent="1" vertex="1">
                    <mxGeometry x="1070" y="-22" width="60" height="30" as="geometry"/>
                </mxCell>
                <mxCell id="4" value="" style="endArrow=classic;html=1;" parent="1" edge="1">
                    <mxGeometry width="50" height="50" relative="1" as="geometry">
                        <mxPoint as="sourcePoint"/>
                        <mxPoint y="857.3333740234375" as="targetPoint"/>
                    </mxGeometry>
                </mxCell>
                <mxCell id="5" value="Y" style="text;html=1;align=center;verticalAlign=middle;whiteSpace=wrap;rounded=0;" parent="1" vertex="1">
                    <mxGeometry y="830" width="60" height="30" as="geometry"/>
                </mxCell>
                <mxCell id="6" value="64x32" style="rounded=0;whiteSpace=wrap;html=1;" parent="1" vertex="1">
                    <mxGeometry x="-100" y="-70" width="64" height="32" as="geometry"/>
                </mxCell>
                <mxCell id="7" value="" style="endArrow=none;dashed=1;html=1;exitX=0;exitY=1;exitDx=0;exitDy=0;entryX=0;entryY=1;entryDx=0;entryDy=0;" parent="1" source="6" target="HdebAHhrYsAGTr4B4Djl-2" edge="1">
                    <mxGeometry width="50" height="50" relative="1" as="geometry">
                        <mxPoint x="440" y="170" as="sourcePoint"/>
                        <mxPoint x="490" y="120" as="targetPoint"/>
                    </mxGeometry>
                </mxCell>
                <mxCell id="8" value="" style="endArrow=none;dashed=1;html=1;exitX=1;exitY=0;exitDx=0;exitDy=0;entryX=1;entryY=0;entryDx=0;entryDy=0;" parent="1" source="6" target="HdebAHhrYsAGTr4B4Djl-2" edge="1">
                    <mxGeometry width="50" height="50" relative="1" as="geometry">
                        <mxPoint x="440" y="170" as="sourcePoint"/>
                        <mxPoint x="490" y="120" as="targetPoint"/>
                    </mxGeometry>
                </mxCell>
                <mxCell id="9" value="等比放大8倍" style="text;html=1;align=center;verticalAlign=middle;whiteSpace=wrap;rounded=0;" parent="1" vertex="1">
                    <mxGeometry x="-60" y="-38" width="70" height="30" as="geometry"/>
                </mxCell>
                <mxCell id="16" value="1" style="rounded=0;whiteSpace=wrap;html=1;" vertex="1" parent="1">
                    <mxGeometry x="2" y="270" width="125" height="60" as="geometry"/>
                </mxCell>
                <mxCell id="17" value="2" style="rounded=0;whiteSpace=wrap;html=1;" vertex="1" parent="1">
                    <mxGeometry x="131" y="270" width="125" height="60" as="geometry"/>
                </mxCell>
                <mxCell id="18" value="3" style="rounded=0;whiteSpace=wrap;html=1;" vertex="1" parent="1">
                    <mxGeometry x="262" y="270" width="125" height="60" as="geometry"/>
                </mxCell>
                <mxCell id="19" value="C" style="rounded=0;whiteSpace=wrap;html=1;" vertex="1" parent="1">
                    <mxGeometry x="392" y="270" width="125" height="60" as="geometry"/>
                </mxCell>
                <mxCell id="33" value="" style="rounded=0;whiteSpace=wrap;html=1;strokeColor=#d79b00;fontSize=12;fillColor=#ffe6cc;movable=1;resizable=1;rotatable=1;deletable=1;editable=1;locked=0;connectable=1;" vertex="1" parent="1">
                    <mxGeometry x="525" y="1" width="268" height="258" as="geometry"/>
                </mxCell>
                <mxCell id="34" value="" style="rounded=0;whiteSpace=wrap;html=1;strokeColor=#b85450;fontSize=12;fillColor=#f8cecc;movable=1;resizable=1;rotatable=1;deletable=1;editable=1;locked=0;connectable=1;" vertex="1" parent="1">
                    <mxGeometry x="525" y="263" width="268" height="194" as="geometry"/>
                </mxCell>
                <mxCell id="35" value="PC-地址-指令集&lt;div&gt;&lt;font color=&quot;#000000&quot;&gt;（526,8）&lt;br&gt;&lt;/font&gt;&lt;div&gt;266x256&lt;/div&gt;&lt;/div&gt;" style="text;html=1;align=center;verticalAlign=middle;whiteSpace=wrap;rounded=0;" vertex="1" parent="1">
                    <mxGeometry x="608" y="131" width="88" height="30" as="geometry"/>
                </mxCell>
                <mxCell id="36" value="寄存器/栈&lt;div&gt;&lt;font color=&quot;#000000&quot;&gt;(526,270)&lt;br&gt;&lt;/font&gt;&lt;div&gt;266x192&lt;/div&gt;&lt;/div&gt;" style="text;html=1;align=center;verticalAlign=middle;whiteSpace=wrap;rounded=0;" vertex="1" parent="1">
                    <mxGeometry x="622" y="345" width="60" height="30" as="geometry"/>
                </mxCell>
                <mxCell id="37" value="" style="rounded=0;whiteSpace=wrap;html=1;strokeColor=#d6b656;fontSize=12;fillColor=#fff2cc;movable=1;resizable=1;rotatable=1;deletable=1;editable=1;locked=0;connectable=1;" vertex="1" parent="1">
                    <mxGeometry x="525" y="461" width="268" height="70" as="geometry"/>
                </mxCell>
                <mxCell id="38" value="信息打印" style="text;html=1;align=center;verticalAlign=middle;whiteSpace=wrap;rounded=0;" vertex="1" parent="1">
                    <mxGeometry x="619" y="480" width="79" height="30" as="geometry"/>
                </mxCell>
                <mxCell id="39" value="1" style="rounded=0;whiteSpace=wrap;html=1;" vertex="1" parent="1">
                    <mxGeometry x="2" y="335" width="125" height="60" as="geometry"/>
                </mxCell>
                <mxCell id="40" value="2" style="rounded=0;whiteSpace=wrap;html=1;" vertex="1" parent="1">
                    <mxGeometry x="131" y="335" width="125" height="60" as="geometry"/>
                </mxCell>
                <mxCell id="41" value="3" style="rounded=0;whiteSpace=wrap;html=1;" vertex="1" parent="1">
                    <mxGeometry x="262" y="335" width="125" height="60" as="geometry"/>
                </mxCell>
                <mxCell id="42" value="C" style="rounded=0;whiteSpace=wrap;html=1;" vertex="1" parent="1">
                    <mxGeometry x="392" y="335" width="125" height="60" as="geometry"/>
                </mxCell>
                <mxCell id="43" value="1" style="rounded=0;whiteSpace=wrap;html=1;" vertex="1" parent="1">
                    <mxGeometry x="2" y="400" width="125" height="60" as="geometry"/>
                </mxCell>
                <mxCell id="44" value="2" style="rounded=0;whiteSpace=wrap;html=1;" vertex="1" parent="1">
                    <mxGeometry x="131" y="400" width="125" height="60" as="geometry"/>
                </mxCell>
                <mxCell id="45" value="3" style="rounded=0;whiteSpace=wrap;html=1;" vertex="1" parent="1">
                    <mxGeometry x="262" y="400" width="125" height="60" as="geometry"/>
                </mxCell>
                <mxCell id="46" value="C" style="rounded=0;whiteSpace=wrap;html=1;" vertex="1" parent="1">
                    <mxGeometry x="392" y="400" width="125" height="60" as="geometry"/>
                </mxCell>
                <mxCell id="47" value="1" style="rounded=0;whiteSpace=wrap;html=1;" vertex="1" parent="1">
                    <mxGeometry x="2" y="465" width="125" height="60" as="geometry"/>
                </mxCell>
                <mxCell id="48" value="2" style="rounded=0;whiteSpace=wrap;html=1;" vertex="1" parent="1">
                    <mxGeometry x="131" y="465" width="125" height="60" as="geometry"/>
                </mxCell>
                <mxCell id="49" value="3" style="rounded=0;whiteSpace=wrap;html=1;" vertex="1" parent="1">
                    <mxGeometry x="262" y="465" width="125" height="60" as="geometry"/>
                </mxCell>
                <mxCell id="50" value="C" style="rounded=0;whiteSpace=wrap;html=1;" vertex="1" parent="1">
                    <mxGeometry x="392" y="465" width="125" height="60" as="geometry"/>
                </mxCell>
            </root>
        </mxGraphModel>
    </diagram>
    <diagram id="4iXFAcOOUf3KrjSNP_4P" name="结构">
        <mxGraphModel dx="1740" dy="761" grid="1" gridSize="10" guides="1" tooltips="1" connect="1" arrows="1" fold="1" page="1" pageScale="1" pageWidth="827" pageHeight="1169" math="0" shadow="0">
            <root>
                <mxCell id="0"/>
                <mxCell id="1" parent="0"/>
                <mxCell id="_tNwb0YuUMq8zvEkBYjF-1" value="ram" style="rounded=0;whiteSpace=wrap;html=1;" parent="1" vertex="1">
                    <mxGeometry x="-450" y="560" width="40" height="60" as="geometry"/>
                </mxCell>
                <mxCell id="_tNwb0YuUMq8zvEkBYjF-3" style="edgeStyle=orthogonalEdgeStyle;rounded=0;orthogonalLoop=1;jettySize=auto;html=1;" parent="1" source="_tNwb0YuUMq8zvEkBYjF-2" target="_tNwb0YuUMq8zvEkBYjF-1" edge="1">
                    <mxGeometry relative="1" as="geometry"/>
                </mxCell>
                <mxCell id="_tNwb0YuUMq8zvEkBYjF-2" value="Games" style="rounded=0;whiteSpace=wrap;html=1;" parent="1" vertex="1">
                    <mxGeometry x="-710" y="530" width="50" height="20" as="geometry"/>
                </mxCell>
                <mxCell id="_tNwb0YuUMq8zvEkBYjF-4" value="一堆指令集：&lt;br&gt;定义输入输出，控制chip8在屏幕上显示" style="text;html=1;strokeColor=none;fillColor=none;align=center;verticalAlign=middle;whiteSpace=wrap;rounded=0;" parent="1" vertex="1">
                    <mxGeometry x="-795.62" y="550" width="221.25" height="30" as="geometry"/>
                </mxCell>
                <mxCell id="_tNwb0YuUMq8zvEkBYjF-5" value="图案：通过描绘像素点来实现" style="text;html=1;strokeColor=none;fillColor=none;align=center;verticalAlign=middle;whiteSpace=wrap;rounded=0;" parent="1" vertex="1">
                    <mxGeometry x="-762.49" y="510" width="172.49" height="20" as="geometry"/>
                </mxCell>
                <mxCell id="_tNwb0YuUMq8zvEkBYjF-6" value="图像" style="rounded=0;whiteSpace=wrap;html=1;direction=south;" parent="1" vertex="1">
                    <mxGeometry x="-530" y="625" width="60" height="20" as="geometry"/>
                </mxCell>
                <mxCell id="_tNwb0YuUMq8zvEkBYjF-7" value="声音" style="rounded=0;whiteSpace=wrap;html=1;direction=south;" parent="1" vertex="1">
                    <mxGeometry x="-470" y="625" width="60" height="20" as="geometry"/>
                </mxCell>
                <mxCell id="_tNwb0YuUMq8zvEkBYjF-11" value="使用sdl2来代替" style="text;html=1;strokeColor=none;fillColor=none;align=center;verticalAlign=middle;whiteSpace=wrap;rounded=0;" parent="1" vertex="1">
                    <mxGeometry x="-630" y="620" width="100" height="30" as="geometry"/>
                </mxCell>
                <mxCell id="_tNwb0YuUMq8zvEkBYjF-12" value="" style="endArrow=none;dashed=1;html=1;rounded=0;exitX=1;exitY=0;exitDx=0;exitDy=0;entryX=0;entryY=0;entryDx=0;entryDy=0;" parent="1" source="_tNwb0YuUMq8zvEkBYjF-1" target="_tNwb0YuUMq8zvEkBYjF-22" edge="1">
                    <mxGeometry width="50" height="50" relative="1" as="geometry">
                        <mxPoint x="-270" y="520" as="sourcePoint"/>
                        <mxPoint x="-250" y="330" as="targetPoint"/>
                    </mxGeometry>
                </mxCell>
                <mxCell id="_tNwb0YuUMq8zvEkBYjF-13" value="" style="endArrow=none;dashed=1;html=1;rounded=0;exitX=1;exitY=1;exitDx=0;exitDy=0;entryX=0;entryY=1;entryDx=0;entryDy=0;" parent="1" source="_tNwb0YuUMq8zvEkBYjF-1" target="_tNwb0YuUMq8zvEkBYjF-14" edge="1">
                    <mxGeometry width="50" height="50" relative="1" as="geometry">
                        <mxPoint x="-270" y="520" as="sourcePoint"/>
                        <mxPoint x="-240" y="680" as="targetPoint"/>
                    </mxGeometry>
                </mxCell>
                <mxCell id="_tNwb0YuUMq8zvEkBYjF-14" value="" style="rounded=0;whiteSpace=wrap;html=1;fillColor=#d5e8d4;strokeColor=#000000;" parent="1" vertex="1">
                    <mxGeometry x="-250" y="630" width="80" height="40" as="geometry"/>
                </mxCell>
                <mxCell id="_tNwb0YuUMq8zvEkBYjF-15" value="0x000" style="text;html=1;strokeColor=none;fillColor=none;align=center;verticalAlign=middle;whiteSpace=wrap;rounded=0;" parent="1" vertex="1">
                    <mxGeometry x="-170" y="660" width="40" height="20" as="geometry"/>
                </mxCell>
                <mxCell id="_tNwb0YuUMq8zvEkBYjF-16" value="0x200" style="text;html=1;strokeColor=none;fillColor=none;align=center;verticalAlign=middle;whiteSpace=wrap;rounded=0;" parent="1" vertex="1">
                    <mxGeometry x="-180" y="620" width="60" height="20" as="geometry"/>
                </mxCell>
                <mxCell id="_tNwb0YuUMq8zvEkBYjF-17" value="" style="rounded=0;whiteSpace=wrap;html=1;" parent="1" vertex="1">
                    <mxGeometry x="-250" y="550" width="80" height="80" as="geometry"/>
                </mxCell>
                <mxCell id="_tNwb0YuUMq8zvEkBYjF-29" style="edgeStyle=orthogonalEdgeStyle;rounded=0;orthogonalLoop=1;jettySize=auto;html=1;" parent="1" source="_tNwb0YuUMq8zvEkBYjF-18" target="_tNwb0YuUMq8zvEkBYjF-16" edge="1">
                    <mxGeometry relative="1" as="geometry"/>
                </mxCell>
                <mxCell id="_tNwb0YuUMq8zvEkBYjF-18" value="大部分chip程序开始地址" style="text;html=1;strokeColor=none;fillColor=none;align=center;verticalAlign=middle;whiteSpace=wrap;rounded=0;dashed=1;" parent="1" vertex="1">
                    <mxGeometry x="-50" y="615" width="140" height="30" as="geometry"/>
                </mxCell>
                <mxCell id="_tNwb0YuUMq8zvEkBYjF-20" value="0x600" style="text;html=1;strokeColor=none;fillColor=none;align=center;verticalAlign=middle;whiteSpace=wrap;rounded=0;" parent="1" vertex="1">
                    <mxGeometry x="-180" y="545" width="60" height="20" as="geometry"/>
                </mxCell>
                <mxCell id="_tNwb0YuUMq8zvEkBYjF-30" style="edgeStyle=orthogonalEdgeStyle;rounded=0;orthogonalLoop=1;jettySize=auto;html=1;" parent="1" source="_tNwb0YuUMq8zvEkBYjF-21" target="_tNwb0YuUMq8zvEkBYjF-20" edge="1">
                    <mxGeometry relative="1" as="geometry"/>
                </mxCell>
                <mxCell id="_tNwb0YuUMq8zvEkBYjF-21" value="ETI 600 chip程序开始地址" style="text;html=1;strokeColor=none;fillColor=none;align=center;verticalAlign=middle;whiteSpace=wrap;rounded=0;dashed=1;" parent="1" vertex="1">
                    <mxGeometry x="-50" y="540" width="150" height="30" as="geometry"/>
                </mxCell>
                <mxCell id="_tNwb0YuUMq8zvEkBYjF-22" value="" style="rounded=0;whiteSpace=wrap;html=1;" parent="1" vertex="1">
                    <mxGeometry x="-250" y="320" width="80" height="230" as="geometry"/>
                </mxCell>
                <mxCell id="_tNwb0YuUMq8zvEkBYjF-23" value="0xFFF" style="text;html=1;strokeColor=none;fillColor=none;align=center;verticalAlign=middle;whiteSpace=wrap;rounded=0;" parent="1" vertex="1">
                    <mxGeometry x="-180" y="310" width="60" height="20" as="geometry"/>
                </mxCell>
                <mxCell id="_tNwb0YuUMq8zvEkBYjF-24" value="" style="shape=curlyBracket;whiteSpace=wrap;html=1;rounded=1;flipH=1;labelPosition=right;verticalLabelPosition=middle;align=left;verticalAlign=middle;" parent="1" vertex="1">
                    <mxGeometry x="-130" y="630" width="20" height="40" as="geometry"/>
                </mxCell>
                <mxCell id="_tNwb0YuUMq8zvEkBYjF-25" value="&lt;span style=&quot;&quot;&gt;interpreter&lt;/span&gt;" style="text;html=1;align=center;verticalAlign=middle;resizable=0;points=[];autosize=1;strokeColor=none;fillColor=none;" parent="1" vertex="1">
                    <mxGeometry x="-120" y="635" width="80" height="30" as="geometry"/>
                </mxCell>
                <mxCell id="_tNwb0YuUMq8zvEkBYjF-27" value="" style="rounded=0;whiteSpace=wrap;html=1;" parent="1" vertex="1">
                    <mxGeometry x="-530" y="560" width="80" height="60" as="geometry"/>
                </mxCell>
                <mxCell id="_tNwb0YuUMq8zvEkBYjF-28" value="4k" style="text;html=1;strokeColor=none;fillColor=none;align=center;verticalAlign=middle;whiteSpace=wrap;rounded=0;" parent="1" vertex="1">
                    <mxGeometry x="-420" y="575" width="60" height="30" as="geometry"/>
                </mxCell>
                <mxCell id="_tNwb0YuUMq8zvEkBYjF-31" value="留给屏幕256字节&lt;br&gt;64x32分辨率(bit)" style="rounded=0;whiteSpace=wrap;html=1;strokeColor=#000000;fillColor=#FFFFFF;fontSize=10;" parent="1" vertex="1">
                    <mxGeometry x="-250" y="320" width="80" height="30" as="geometry"/>
                </mxCell>
                <mxCell id="_tNwb0YuUMq8zvEkBYjF-32" value="0xF00" style="text;html=1;strokeColor=none;fillColor=none;align=center;verticalAlign=middle;whiteSpace=wrap;rounded=0;" parent="1" vertex="1">
                    <mxGeometry x="-180" y="340" width="60" height="20" as="geometry"/>
                </mxCell>
                <mxCell id="_tNwb0YuUMq8zvEkBYjF-33" value="加载读取" style="text;html=1;strokeColor=none;fillColor=none;align=center;verticalAlign=middle;whiteSpace=wrap;rounded=0;fontSize=12;" parent="1" vertex="1">
                    <mxGeometry x="-590" y="515" width="60" height="30" as="geometry"/>
                </mxCell>
            </root>
        </mxGraphModel>
    </diagram>
    <diagram id="qLTkNTbuO9mnDjjRiKjb" name="第 3 页">
        <mxGraphModel dx="913" dy="761" grid="1" gridSize="10" guides="1" tooltips="1" connect="1" arrows="1" fold="1" page="1" pageScale="1" pageWidth="827" pageHeight="1169" math="0" shadow="0">
            <root>
                <mxCell id="0"/>
                <mxCell id="1" parent="0"/>
                <mxCell id="qSmsncFZpV9MIXdERPOc-1" value="" style="rounded=0;whiteSpace=wrap;html=1;fillColor=#d5e8d4;strokeColor=#82b366;" parent="1" vertex="1">
                    <mxGeometry x="20" y="130" width="630" height="360" as="geometry"/>
                </mxCell>
                <mxCell id="qSmsncFZpV9MIXdERPOc-4" value="7" style="text;html=1;align=center;verticalAlign=middle;whiteSpace=wrap;rounded=0;" parent="1" vertex="1">
                    <mxGeometry x="615" y="380" width="25" height="20" as="geometry"/>
                </mxCell>
                <mxCell id="qSmsncFZpV9MIXdERPOc-6" value="7" style="text;html=1;align=center;verticalAlign=middle;whiteSpace=wrap;rounded=0;" parent="1" vertex="1">
                    <mxGeometry x="20" y="380" width="25" height="20" as="geometry"/>
                </mxCell>
                <mxCell id="qSmsncFZpV9MIXdERPOc-9" value="7" style="text;html=1;align=center;verticalAlign=middle;whiteSpace=wrap;rounded=0;" parent="1" vertex="1">
                    <mxGeometry x="155" y="460" width="25" height="20" as="geometry"/>
                </mxCell>
                <mxCell id="qSmsncFZpV9MIXdERPOc-12" value="" style="rounded=0;whiteSpace=wrap;html=1;fillColor=#ffe6cc;strokeColor=#d79b00;" parent="1" vertex="1">
                    <mxGeometry x="50" y="160" width="270" height="140" as="geometry"/>
                </mxCell>
                <mxCell id="qSmsncFZpV9MIXdERPOc-13" value="没缩水的区域" style="rounded=0;whiteSpace=wrap;html=1;fillColor=#dae8fc;strokeColor=#6c8ebf;" parent="1" vertex="1">
                    <mxGeometry x="60" y="170" width="250" height="120" as="geometry"/>
                </mxCell>
                <mxCell id="qSmsncFZpV9MIXdERPOc-14" value="1" style="text;html=1;align=center;verticalAlign=middle;whiteSpace=wrap;rounded=0;" parent="1" vertex="1">
                    <mxGeometry x="50" y="210" width="10" height="10" as="geometry"/>
                </mxCell>
                <mxCell id="qSmsncFZpV9MIXdERPOc-16" value="1" style="text;html=1;align=center;verticalAlign=middle;whiteSpace=wrap;rounded=0;" parent="1" vertex="1">
                    <mxGeometry x="145" y="160" width="10" height="10" as="geometry"/>
                </mxCell>
                <mxCell id="qSmsncFZpV9MIXdERPOc-20" value="" style="rounded=0;whiteSpace=wrap;html=1;fillColor=#ffe6cc;strokeColor=#d79b00;" parent="1" vertex="1">
                    <mxGeometry x="50" y="320" width="270" height="140" as="geometry"/>
                </mxCell>
                <mxCell id="qSmsncFZpV9MIXdERPOc-21" value="没缩水的区域" style="rounded=0;whiteSpace=wrap;html=1;fillColor=#dae8fc;strokeColor=#6c8ebf;" parent="1" vertex="1">
                    <mxGeometry x="60" y="330" width="250" height="120" as="geometry"/>
                </mxCell>
                <mxCell id="qSmsncFZpV9MIXdERPOc-23" value="7" style="text;html=1;align=center;verticalAlign=middle;whiteSpace=wrap;rounded=0;" parent="1" vertex="1">
                    <mxGeometry x="490" y="460" width="25" height="20" as="geometry"/>
                </mxCell>
                <mxCell id="qSmsncFZpV9MIXdERPOc-25" value="" style="rounded=0;whiteSpace=wrap;html=1;fillColor=#ffe6cc;strokeColor=#d79b00;" parent="1" vertex="1">
                    <mxGeometry x="340" y="160" width="275" height="140" as="geometry"/>
                </mxCell>
                <mxCell id="qSmsncFZpV9MIXdERPOc-26" value="没缩水的区域" style="rounded=0;whiteSpace=wrap;html=1;fillColor=#dae8fc;strokeColor=#6c8ebf;" parent="1" vertex="1">
                    <mxGeometry x="350" y="170" width="250" height="120" as="geometry"/>
                </mxCell>
                <mxCell id="qSmsncFZpV9MIXdERPOc-27" value="1" style="text;html=1;align=center;verticalAlign=middle;whiteSpace=wrap;rounded=0;" parent="1" vertex="1">
                    <mxGeometry x="340" y="210" width="10" height="10" as="geometry"/>
                </mxCell>
                <mxCell id="qSmsncFZpV9MIXdERPOc-28" value="1" style="text;html=1;align=center;verticalAlign=middle;whiteSpace=wrap;rounded=0;" parent="1" vertex="1">
                    <mxGeometry x="440" y="160" width="10" height="10" as="geometry"/>
                </mxCell>
                <mxCell id="qSmsncFZpV9MIXdERPOc-29" value="" style="rounded=0;whiteSpace=wrap;html=1;fillColor=#ffe6cc;strokeColor=#d79b00;" parent="1" vertex="1">
                    <mxGeometry x="340" y="320" width="275" height="140" as="geometry"/>
                </mxCell>
                <mxCell id="qSmsncFZpV9MIXdERPOc-30" value="没缩水的区域" style="rounded=0;whiteSpace=wrap;html=1;fillColor=#dae8fc;strokeColor=#6c8ebf;" parent="1" vertex="1">
                    <mxGeometry x="350" y="330" width="250" height="120" as="geometry"/>
                </mxCell>
                <mxCell id="qSmsncFZpV9MIXdERPOc-34" value="4" style="text;html=1;align=center;verticalAlign=middle;whiteSpace=wrap;rounded=0;" parent="1" vertex="1">
                    <mxGeometry x="137.5" y="295" width="60" height="30" as="geometry"/>
                </mxCell>
                <mxCell id="eI-W607EHuijptONe7kx-1" value="4" style="text;html=1;align=center;verticalAlign=middle;whiteSpace=wrap;rounded=0;" vertex="1" parent="1">
                    <mxGeometry x="300" y="240" width="60" height="30" as="geometry"/>
                </mxCell>
            </root>
        </mxGraphModel>
    </diagram>
</mxfile>